<svg id="Layer_1" data-name="Layer 1" xmlns="http://www.w3.org/2000/svg" viewBox="0 0 164 77"><defs><style>.cls-1{fill:#b3191d;}.cls-2{fill:#175f36;}</style></defs><title>barra_feder</title><path class="cls-1" d="M48.21,58.2,58,49.91q1.46-1.22,2.47-2.21a13.91,13.91,0,0,0,1.64-1.88A6.7,6.7,0,0,0,63,44.08a5.66,5.66,0,0,0,.29-1.82A4.09,4.09,0,0,0,62,39a4.76,4.76,0,0,0-3.26-1.15,5.75,5.75,0,0,0-3.43,1.05,15.74,15.74,0,0,0-3.14,3.2l-3.53-2.76a24.21,24.21,0,0,1,2.07-2.54A10.84,10.84,0,0,1,53,34.92a10.44,10.44,0,0,1,2.72-1.17,12.65,12.65,0,0,1,3.38-.41,11.27,11.27,0,0,1,3.79.61,8.62,8.62,0,0,1,3,1.72,7.82,7.82,0,0,1,1.93,2.67,8.52,8.52,0,0,1,.69,3.47v.08a9.66,9.66,0,0,1-.45,3,9.45,9.45,0,0,1-1.36,2.61,16.83,16.83,0,0,1-2.31,2.53q-1.4,1.28-3.26,2.82l-5.84,4.87h13.5v4.38H48.21Z"/><path class="cls-1" d="M85.83,62.13a15.16,15.16,0,0,1-6-1.15,14.24,14.24,0,0,1-4.66-3.14,14.41,14.41,0,0,1-3-4.64A14.71,14.71,0,0,1,71,47.53v-.08a14.71,14.71,0,0,1,1.09-5.66,14.37,14.37,0,0,1,3.08-4.66,14.8,14.8,0,0,1,10.7-4.36,15.13,15.13,0,0,1,6,1.16,14.23,14.23,0,0,1,4.66,3.14,14.46,14.46,0,0,1,3,4.64,14.73,14.73,0,0,1,1.09,5.66v.08a14.72,14.72,0,0,1-1.09,5.65,14.31,14.31,0,0,1-3.08,4.66,14.8,14.8,0,0,1-10.7,4.36m.08-4.58a9.21,9.21,0,0,0,6.86-2.94,10,10,0,0,0,2-3.18,10.63,10.63,0,0,0,.71-3.89v-.08a10.8,10.8,0,0,0-.71-3.91,9.68,9.68,0,0,0-2-3.2,9.53,9.53,0,0,0-3-2.17A9.37,9.37,0,0,0,79,40.3a9.91,9.91,0,0,0-2,3.18,10.69,10.69,0,0,0-.71,3.89v.08A10.85,10.85,0,0,0,77,51.36a9.71,9.71,0,0,0,2,3.21A9.58,9.58,0,0,0,82,56.74a9.21,9.21,0,0,0,3.87.81"/><path class="cls-1" d="M102.66,58.2l9.77-8.29q1.46-1.22,2.47-2.21a13.91,13.91,0,0,0,1.64-1.88,6.83,6.83,0,0,0,.91-1.74,5.75,5.75,0,0,0,.28-1.82A4.09,4.09,0,0,0,116.42,39a4.77,4.77,0,0,0-3.26-1.15,5.74,5.74,0,0,0-3.43,1.05,15.69,15.69,0,0,0-3.14,3.2l-3.53-2.76a24.72,24.72,0,0,1,2.07-2.54,10.92,10.92,0,0,1,2.29-1.88,10.45,10.45,0,0,1,2.72-1.17,12.66,12.66,0,0,1,3.38-.41,11.25,11.25,0,0,1,3.79.61,8.59,8.59,0,0,1,3,1.72,7.82,7.82,0,0,1,1.93,2.67,8.47,8.47,0,0,1,.69,3.47v.08a9.06,9.06,0,0,1-1.81,5.63,16.58,16.58,0,0,1-2.31,2.53q-1.4,1.28-3.26,2.82l-5.84,4.87h13.5v4.38H102.66Z"/><path class="cls-1" d="M140.28,62.13a15.16,15.16,0,0,1-6-1.15,14.13,14.13,0,0,1-7.7-7.78,14.68,14.68,0,0,1-1.1-5.66v-.08a14.67,14.67,0,0,1,1.1-5.66,14.3,14.3,0,0,1,3.08-4.66,14.84,14.84,0,0,1,4.7-3.18,15,15,0,0,1,6-1.17,15.15,15.15,0,0,1,6,1.16A14.28,14.28,0,0,1,151,37.07a14.45,14.45,0,0,1,3,4.64,14.71,14.71,0,0,1,1.09,5.66v.08a14.7,14.7,0,0,1-1.09,5.65A14.27,14.27,0,0,1,151,57.77a14.74,14.74,0,0,1-4.7,3.18,14.89,14.89,0,0,1-6,1.18m.08-4.58a9.25,9.25,0,0,0,3.85-.79,9.15,9.15,0,0,0,3-2.15,10,10,0,0,0,2-3.18,10.67,10.67,0,0,0,.71-3.89v-.08a10.85,10.85,0,0,0-.71-3.91,9.74,9.74,0,0,0-2-3.2,9.54,9.54,0,0,0-3-2.17,9.38,9.38,0,0,0-10.74,2.13,10,10,0,0,0-2,3.18,10.67,10.67,0,0,0-.7,3.89v.08a10.83,10.83,0,0,0,.7,3.91,9.75,9.75,0,0,0,2,3.21,9.59,9.59,0,0,0,3,2.17,9.24,9.24,0,0,0,3.88.81"/><path class="cls-2" d="M51.28,24.07a4.29,4.29,0,0,1-.51,0v1.71a8,8,0,0,1,1,.14v1H48.21v-1a7.94,7.94,0,0,1,1-.14V20a8.29,8.29,0,0,1-1-.14v-1h.92c.37,0,1.41,0,2.24,0,1.95,0,3,.91,3,2.47a2.81,2.81,0,0,1-3.11,2.76m0-4h-.53v2.66a3.23,3.23,0,0,0,.45,0A1.42,1.42,0,0,0,52.8,21.4c0-.81-.45-1.31-1.5-1.31M58.7,27c-2.43,0-3.62-1.54-3.62-4A3.89,3.89,0,0,1,59,18.76c2.12,0,3.62,1.28,3.62,4A3.89,3.89,0,0,1,58.7,27m.13-6.84c-1.1,0-2.11.87-2.11,2.66s.66,2.78,2.09,2.78c1,0,2.14-.8,2.14-2.71s-.75-2.73-2.12-2.73m9,6.71L65.9,23.56h-.21v2.19a4,4,0,0,1,.72.13v1H63.13v-1a8,8,0,0,1,1-.14V20a8.32,8.32,0,0,1-1-.14v-1h.92c.31,0,1.41,0,2.39,0,1.76,0,2.89.61,2.89,2.24a2.19,2.19,0,0,1-1.88,2.16c.14.18.28.39.4.58l1.23,1.92.78.13v1ZM66.28,20.1a4.46,4.46,0,0,0-.59,0v2.31l.54,0c.93,0,1.49-.47,1.49-1.22s-.46-1.14-1.44-1.14m9,1c-.05-.36-.12-.68-.14-1H73.94v5.61a8.07,8.07,0,0,1,1,.14v1H71.38v-1a8,8,0,0,1,1-.14V20.15H71.2c0,.3-.08.62-.14,1H69.92V18.89h6.52v2.24ZM84.19,20V23.8C84.19,25.91,83,27,80.9,27c-2.51,0-3.08-1.37-3.08-2.89V20a4.6,4.6,0,0,1-.75-.13v-1H80.2v1a5.36,5.36,0,0,1-.85.13v4c0,1,.32,1.71,1.64,1.71s1.68-.5,1.68-1.85V20a5,5,0,0,1-.85-.13v-1h3.09v1a4.43,4.43,0,0,1-.73.13m7.91,3.79v2.71a7.69,7.69,0,0,1-2.75.49,3.65,3.65,0,0,1-4-3.91,4.09,4.09,0,0,1,4.41-4.28,8.77,8.77,0,0,1,2.22.3V21.2H90.8c-.07-.34-.1-.65-.14-1a3.85,3.85,0,0,0-1-.12A2.54,2.54,0,0,0,87,22.91a2.38,2.38,0,0,0,2.54,2.68,3.28,3.28,0,0,0,1-.14V23.79a6.31,6.31,0,0,1-1-.15v-1h3.21v1c-.22,0-.44.08-.66.12m5.54,3.08v-1a7.77,7.77,0,0,1,.84-.13l-.34-.94h-2.9l-.33.94a7.6,7.6,0,0,1,.84.13v1h-3v-1a2.66,2.66,0,0,1,.62-.12l2.43-6.89h1.88l2.48,6.89a2.62,2.62,0,0,1,.62.12v1ZM97,21.67a11.05,11.05,0,0,1-.36-1.25h0a11.86,11.86,0,0,1-.38,1.31l-.68,1.9h2.14Zm4.09,5.18v-1a8.06,8.06,0,0,1,1-.14V20a8.43,8.43,0,0,1-1-.14v-1h3.59v1a8.32,8.32,0,0,1-1,.14v5.6h1.52c0-.29.08-.62.14-1h1.13v2.24Z"/><path class="cls-2" d="M24.34,19.1c-7,2.78-11.39,10.1-11.39,21.38V57.6s1.44-11,11.39-14.18Z"/><path class="cls-1" d="M27.73,45.12c-4.08.81-10.06,4.08-11.81,8.69,8.76-10.63,26.63-.36,27.43-20.36.25-6.33.28-14.13.28-14.13a58.51,58.51,0,0,0-15.89,3Z"/><path class="cls-2" d="M26.6,50.89s-9.5.77-10.31,6.2c-.64,4.24,10.31,4.35,10.31,4.35Z"/></svg>